<svg height='100px' width='100px'  fill="#000000" xmlns="http://www.w3.org/2000/svg" viewBox="0 0 68 68" x="0px" y="0px"><path fill="#000000" fill-rule="evenodd" d="M442,598 L428.003565,598 C421.374211,598 416,592.625751 416,585.996435 L416,548.003565 C416,541.374211 421.374249,536 428.003565,536 L465.996435,536 C472.625789,536 478,541.374249 478,548.003565 L478,562 L482,562 C483.104569,562 484,562.895431 484,564 L484,576 C484,577.104569 483.104569,578 482,578 L477.910271,578 C476.95907,588.555046 468.555895,596.959051 458,597.910277 L458,602 C458,603.104569 457.104569,604 456,604 L444,604 C442.895431,604 442,603.104569 442,602 L442,598 L442,598 Z M442,590 C442,588.895431 442.895431,588 444,588 L456,588 C457.104569,588 458,588.895431 458,590 L458,593.890107 C466.344684,592.967744 472.967761,586.344042 473.890101,578 L470,578 C468.895431,578 468,577.104569 468,576 L468,564 C468,562.895431 468.895431,562 470,562 L474,562 L474,548.003565 C474,543.583382 470.416643,540 465.996435,540 L428.003565,540 C423.583382,540 420,543.583357 420,548.003565 L420,585.996435 C420,590.416618 423.583357,594 428.003565,594 L442,594 L442,590 Z M472,574 L480,574 L480,566 L472,566 L472,574 Z M446,600 L454,600 L454,592 L446,592 L446,600 Z" transform="translate(-416 -536)"></path></svg>